#N canvas 64 37 519 396 10;
#X obj 25 280 list-find;
#X obj 104 158 makefilename %c;
#X obj 104 105 until;
#X obj 104 128 f;
#X obj 134 128 + 1;
#X obj 76 26 loadbang;
#X obj 25 26 inlet;
#X obj 76 253 list;
#X obj 104 223 list;
#X obj 104 193 list prepend;
#X obj 25 333 outlet;
#X text 28 361 2011 www.timvets.net;
#X obj 76 46 t b b b;
#X msg 135 80 0;
#X obj 25 308 + 1;
#X text 47 2 turns characters (symbols) into ascii values (floats)
;
#X msg 104 80 128;
#X connect 0 0 14 0;
#X connect 1 0 9 0;
#X connect 2 0 3 0;
#X connect 3 0 4 0;
#X connect 3 0 1 0;
#X connect 4 0 3 1;
#X connect 5 0 12 0;
#X connect 6 0 0 0;
#X connect 7 0 0 1;
#X connect 8 0 7 1;
#X connect 8 0 9 1;
#X connect 9 0 8 0;
#X connect 12 0 7 0;
#X connect 12 1 16 0;
#X connect 12 2 13 0;
#X connect 13 0 3 1;
#X connect 14 0 10 0;
#X connect 16 0 2 0;