#N canvas 516 179 714 519 10;
#X obj 212 193 pdstring/any2string 0 13;
#X msg 245 53 USER pdbot 8 * : IRCclient in Pd;
#X msg 275 170 QUIT;
#X msg 67 72 disconnect;
#X obj 41 158 mrpeach/tcpclient;
#X msg 267 81 JOIN #botopera;
#X msg 276 114 this is awesome;
#X symbolatom 480 86 10 0 0 0 - - -;
#X msg 212 30 NICK Rachmanibot;
#X obj 498 5 tgl 15 0 empty empty empty 17 7 0 10 -262144 -1 -1 0 1
;
#X obj 499 25 metro 200000;
#X obj 41 188 pdstring/string2any;
#X obj 502 175 coll;
#C restore;
#X symbolatom 199 314 80 0 0 0 - - -;
#X obj 75 248 l2s;
#X obj 59 381 tgl 15 0 empty empty empty 17 7 0 10 -262144 -1 -1 0
1;
#X obj 111 386 tgl 15 0 empty empty empty 17 7 0 10 -262144 -1 -1 0
1;
#X obj 144 391 tgl 15 0 empty empty empty 17 7 0 10 -262144 -1 -1 0
1;
#X obj 181 378 tgl 15 0 empty empty empty 17 7 0 10 -262144 -1 -1 0
1;
#X obj 225 403 tgl 15 0 empty empty empty 17 7 0 10 -262144 -1 -1 0
1;
#X obj 266 398 tgl 15 0 empty empty empty 17 7 0 10 -262144 -1 -1 0
1;
#X obj 75 308 drip;
#X floatatom 132 438 5 0 0 0 - - -;
#X obj 275 135 list prepend PRIVMSG #botopera :;
#X obj 41 218 list split 3;
#X obj 75 268 stripfilename 1;
#X obj 75 288 s2l;
#X msg 584 119 hi;
#X obj 75 338 sel why do you do that sonny hi;
#X obj 194 230 print;
#X msg 41 4 connect irc.freenode.net 6667;
#X connect 0 0 4 0;
#X connect 1 0 0 0;
#X connect 2 0 0 0;
#X connect 3 0 4 0;
#X connect 4 0 11 0;
#X connect 5 0 0 0;
#X connect 6 0 23 0;
#X connect 7 0 23 0;
#X connect 8 0 0 0;
#X connect 9 0 10 0;
#X connect 10 0 6 0;
#X connect 11 0 24 0;
#X connect 11 0 29 0;
#X connect 14 0 25 0;
#X connect 21 0 28 0;
#X connect 23 0 0 0;
#X connect 24 1 14 0;
#X connect 25 0 26 0;
#X connect 25 0 13 0;
#X connect 26 0 21 0;
#X connect 27 0 23 0;
#X connect 28 0 15 0;
#X connect 28 1 16 0;
#X connect 28 1 22 0;
#X connect 28 2 17 0;
#X connect 28 3 18 0;
#X connect 28 4 19 0;
#X connect 28 5 20 0;
#X connect 28 6 27 0;
#X connect 30 0 4 0;
