#N canvas 53 92 933 998 10;
#X obj 491 318 pdstring/any2string 0 13;
#X msg 534 178 USER pdbot 8 * : IRCclient in Pd;
#X msg 554 295 QUIT;
#X msg 317 272 disconnect;
#X obj 291 358 mrpeach/tcpclient;
#X msg 546 206 JOIN #botopera;
#X obj 554 260 list prepend PRIVMSG #botopera :;
#X msg 491 155 NICK Rachmanibot;
#X obj 291 38 t b b;
#X obj 291 60 del 1000;
#X obj 291 82 t b b b;
#X msg 291 165 connect irc.freenode.net 6667;
#X symbolatom 554 90 10 0 0 0 - - -;
#X obj 291 448 pdstring/string2any;
#X obj 325 538 l2s;
#X obj 325 598 drip;
#X obj 291 508 list split 3;
#X obj 325 558 stripfilename 1;
#X obj 325 578 s2l;
#X obj 291 408 spigot;
#X obj 324 388 tgl 15 0 empty empty empty 17 7 0 10 -262144 -1 -1 1
1;
#X symbolatom 413 588 40 0 0 0 - - -;
#X obj 325 620 sel hello my name is antonio how are you today;
#X floatatom 325 650 5 0 0 0 - - -;
#X floatatom 355 690 5 0 0 0 - - -;
#X floatatom 385 730 5 0 0 0 - - -;
#X floatatom 416 650 5 0 0 0 - - -;
#X floatatom 446 690 5 0 0 0 - - -;
#X floatatom 476 730 5 0 0 0 - - -;
#X obj 476 750 simpleosc;
#X floatatom 507 650 5 0 0 0 - - -;
#X floatatom 537 690 5 0 0 0 - - -;
#X floatatom 567 730 5 0 0 0 - - -;
#X obj 325 670 simpleosc;
#X obj 355 710 simpleosc;
#X obj 385 750 simpleosc;
#X obj 416 670 simpleosc;
#X obj 446 710 simpleosc;
#X obj 507 670 simpleosc;
#X obj 537 710 simpleosc;
#X obj 567 750 simpleosc;
#X obj 251 851 catch~ audio;
#X obj 251 873 *~ 0.1;
#X obj 251 895 dac~;
#X obj 291 18 bng 15 250 50 0 empty empty empty 17 7 0 10 -262144 -1
-1;
#X obj 401 895 mp3cast~;
#X msg 655 846 connect giss.tv 8001;
#X floatatom 401 917 5 0 0 0 - - -;
#X msg 734 731 passwd k74ws;
#X msg 680 773 mpeg 44100 128 1 4;
#X msg 686 664 icecast2;
#X msg 680 805 mountpoint hellocatfood.mp3;
#X symbolatom 423 468 40 0 0 0 - - -;
#X connect 0 0 4 0;
#X connect 1 0 0 0;
#X connect 2 0 0 0;
#X connect 3 0 4 0;
#X connect 4 0 19 0;
#X connect 5 0 0 0;
#X connect 6 0 0 0;
#X connect 7 0 0 0;
#X connect 8 0 9 0;
#X connect 8 1 11 0;
#X connect 9 0 10 0;
#X connect 10 0 5 0;
#X connect 10 1 1 0;
#X connect 10 2 7 0;
#X connect 11 0 4 0;
#X connect 12 0 6 0;
#X connect 13 0 16 0;
#X connect 14 0 17 0;
#X connect 15 0 22 0;
#X connect 16 1 14 0;
#X connect 17 0 18 0;
#X connect 17 0 21 0;
#X connect 18 0 15 0;
#X connect 19 0 13 0;
#X connect 20 0 19 1;
#X connect 22 0 23 0;
#X connect 22 1 24 0;
#X connect 22 2 25 0;
#X connect 22 3 26 0;
#X connect 22 4 27 0;
#X connect 22 5 28 0;
#X connect 22 6 30 0;
#X connect 22 7 31 0;
#X connect 22 8 32 0;
#X connect 23 0 33 0;
#X connect 24 0 34 0;
#X connect 25 0 35 0;
#X connect 26 0 36 0;
#X connect 27 0 37 0;
#X connect 28 0 29 0;
#X connect 30 0 38 0;
#X connect 31 0 39 0;
#X connect 32 0 40 0;
#X connect 41 0 42 0;
#X connect 42 0 43 0;
#X connect 42 0 43 1;
#X connect 42 0 45 0;
#X connect 42 0 45 1;
#X connect 44 0 8 0;
#X connect 45 0 47 0;
#X connect 46 0 45 0;
#X connect 48 0 45 0;
#X connect 49 0 45 0;
#X connect 50 0 45 0;
#X connect 51 0 45 0;
#X connect 52 0 18 0;
