#N canvas 0 29 1600 871 10;
#X obj 100 100 cnv 30 220 100 \$0-playing empty empty 20 12 0 14 -228856
-66577 0;
#X obj 104 103 tgl 30 0 empty empty empty 17 7 0 10 -4034 -258113 -1
1 1;
#X obj 252 562 + 1;
#X msg 314 497 1;
#X msg 348 499 -1;
#X obj 105 499 f -1;
#X obj 278 650 r \$0-min;
#X obj 273 813 s \$0-feedback;
#X obj 126 439 r \$0-feedback;
#X obj 226 399 r \$0-reset;
#X obj 375 605 r \$0-max;
#X obj 314 469 sel 0 1;
#X obj 272 711 ||;
#X obj 252 583 t f f f;
#X obj 273 736 sel 0 1;
#X obj 323 606 v \$0-n;
#X obj 273 763 v \$0-n;
#X obj 508 591 r \$0-direction;
#X obj 517 613 r \$0-max;
#X obj 508 663 *;
#X obj 517 635 t b f;
#X obj 466 492 r \$0-direction;
#X obj 466 590 *;
#X obj 491 560 t b f;
#X obj 491 538 r \$0-min;
#X obj 466 517 expr -1*($f1-1);
#X obj 466 720 +;
#X obj 481 690 t b f;
#X obj 451 764 f;
#X obj 252 676 < 0;
#X obj 343 650 > 15;
#X obj 489 764 v \$0-lim;
#X obj 226 439 v \$0-lim;
#X obj 226 419 t b;
#X obj 252 535 t b f;
#X obj 104 160 hrslider.mmb;
#X obj 104 249 s \$0-min;
#X obj 307 249 s \$0-max;
#X msg 549 38 mode 2;
#X msg 419 73 setminmax 1 \$1;
#X obj 314 449 r \$0-direction;
#X obj 549 13 loadbang;
#X obj 105 549 s \$0-position;
#X obj 580 239 r \$0-position;
#X msg 393 148 1 \$1;
#X obj 580 353 outlet;
#X msg 549 68 size 210 15;
#X obj 547 303 gate 2;
#X obj 547 273 + 1;
#X obj 132 399 r speed;
#X obj 105 419 metro;
#X obj 144 52 loadbang;
#X obj 144 103 vradio 15 1 0 2 \$0-direction empty empty 17 23 0 10
-262144 -1 -1 0;
#X text 164 102 fwd;
#X text 164 117 bck;
#X msg 144 72 0;
#X floatatom 104 140 8 0 0 0 - - -;
#X floatatom 264 140 8 0 0 0 - - -;
#X obj 264 344 pack f f;
#X obj 264 324 t b f;
#X obj 104 229 int;
#X obj 580 283 int;
#X obj 107 178 hsl 204 15 1 11288 0 0 empty \$0/player/position empty
-2 -8 0 10 -258113 -262144 -1 14998 1;
#X obj 646 535 r \$0-min;
#X obj 664 562 r \$0-max;
#X msg 660 353 set \$1;
#X obj 703 624 makesymbol %s/player/position;
#X msg 646 679 \; \$3 range \$1 \$2;
#X obj 664 584 t b f b;
#X obj 646 644 pack f f s;
#X obj 703 604 \$0;
#X obj 660 374 s \$0/player/position;
#X obj 550 333 + 1;
#X msg 307 287 set \$1;
#X msg 43 185 set \$1;
#X obj 307 229 int;
#X msg 264 364 \$1 \$2;
#N canvas 0 29 1600 871 btn 0;
#X obj 102 139 outlet;
#X obj 102 39 r stop;
#X obj 152 39 r play;
#X msg 152 61 1;
#X msg 102 61 0;
#X obj 212 39 loadbang;
#X connect 1 0 4 0;
#X connect 2 0 3 0;
#X connect 3 0 0 0;
#X connect 4 0 0 0;
#X connect 5 0 3 0;
#X restore 104 22 pd btn;
#X obj 547 212 r \$0-playing;
#X obj 105 379 r \$0-playing;
#N canvas 0 29 1600 871 rand 0;
#X obj 61 215 pack f f;
#X obj 61 237 outlet;
#X obj 106 165 + 8;
#X obj 61 97 random;
#X obj 94 77 r song;
#X obj 61 17 r shuffle;
#X floatatom 259 140 5 0 0 0 - - -;
#X obj 61 119 t f f;
#X obj 217 37 r reset;
#X obj 162 72 bng 15 250 50 0 empty empty empty 17 7 0 10 -262144 -1
-1;
#X obj 244 160 f;
#X obj 217 59 t b b;
#X msg 217 81 0;
#X obj 217 193 pack f f;
#X obj 99 57 bng 15 250 50 0 empty empty empty 17 7 0 10 -262144 -1
-1;
#X connect 0 0 1 0;
#X connect 2 0 0 1;
#X connect 3 0 7 0;
#X connect 4 0 3 1;
#X connect 4 0 6 0;
#X connect 5 0 3 0;
#X connect 6 0 10 1;
#X connect 7 0 0 0;
#X connect 7 1 2 0;
#X connect 8 0 11 0;
#X connect 9 0 11 0;
#X connect 10 0 13 1;
#X connect 11 0 12 0;
#X connect 11 1 10 0;
#X connect 12 0 13 0;
#X connect 13 0 1 0;
#X connect 14 0 3 0;
#X restore 170 324 pd rand;
#X obj 326 26 r song;
#X connect 2 0 13 0;
#X connect 3 0 34 0;
#X connect 4 0 34 0;
#X connect 5 0 2 0;
#X connect 5 0 42 0;
#X connect 6 0 29 1;
#X connect 8 0 5 1;
#X connect 9 0 33 0;
#X connect 10 0 30 1;
#X connect 11 0 3 0;
#X connect 11 1 4 0;
#X connect 12 0 14 0;
#X connect 13 0 29 0;
#X connect 13 1 30 0;
#X connect 13 2 15 0;
#X connect 14 0 16 0;
#X connect 14 1 28 0;
#X connect 16 0 7 0;
#X connect 17 0 19 0;
#X connect 18 0 20 0;
#X connect 19 0 27 0;
#X connect 20 0 19 0;
#X connect 20 1 19 1;
#X connect 21 0 25 0;
#X connect 22 0 26 0;
#X connect 23 0 22 0;
#X connect 23 1 22 1;
#X connect 24 0 23 0;
#X connect 25 0 22 0;
#X connect 26 0 28 1;
#X connect 26 0 31 0;
#X connect 27 0 26 0;
#X connect 27 1 26 1;
#X connect 28 0 7 0;
#X connect 29 0 12 0;
#X connect 30 0 12 1;
#X connect 32 0 5 1;
#X connect 33 0 32 0;
#X connect 34 0 2 0;
#X connect 34 1 2 1;
#X connect 35 0 60 0;
#X connect 35 1 75 0;
#X connect 38 0 35 0;
#X connect 39 0 35 0;
#X connect 40 0 11 0;
#X connect 41 0 38 0;
#X connect 41 0 46 0;
#X connect 43 0 61 0;
#X connect 44 0 35 0;
#X connect 46 0 35 0;
#X connect 47 1 65 0;
#X connect 47 1 72 0;
#X connect 47 1 45 0;
#X connect 48 0 47 0;
#X connect 49 0 50 1;
#X connect 50 0 5 0;
#X connect 51 0 55 0;
#X connect 55 0 52 0;
#X connect 56 0 58 0;
#X connect 57 0 59 0;
#X connect 58 0 76 0;
#X connect 59 0 58 0;
#X connect 59 1 58 1;
#X connect 60 0 36 0;
#X connect 60 0 74 0;
#X connect 61 0 47 1;
#X connect 63 0 69 0;
#X connect 64 0 68 0;
#X connect 65 0 71 0;
#X connect 66 0 69 2;
#X connect 68 0 69 0;
#X connect 68 1 69 1;
#X connect 68 2 70 0;
#X connect 69 0 67 0;
#X connect 70 0 66 0;
#X connect 73 0 57 0;
#X connect 74 0 56 0;
#X connect 75 0 37 0;
#X connect 75 0 73 0;
#X connect 76 0 35 0;
#X connect 77 0 1 0;
#X connect 78 0 48 0;
#X connect 79 0 50 0;
#X connect 80 0 76 0;
#X connect 81 0 39 0;
#X connect 81 0 44 0;
#X connect 81 0 57 0;
#X coords 0 -1 1 1 220 100 1 100 100;
