#N canvas 677 92 933 998 10;
#X obj 100 100 cnv 30 220 100 empty empty empty 20 12 0 14 -228856
-66577 0;
#X obj 104 103 tgl 30 0 empty empty empty 17 7 0 10 -4034 -258113 -1
0 1;
#X obj 104 12 loadbang;
#X msg 104 32 1;
#X obj 182 642 + 1;
#X msg 244 577 1;
#X msg 278 579 -1;
#X obj 104 529 f -1;
#X obj 208 730 r \$0-min;
#X obj 291 943 s \$0-feedback;
#X obj 125 399 r \$0-feedback;
#X obj 225 399 r \$0-reset;
#X obj 305 685 r \$0-max;
#X obj 244 549 sel 0 1;
#X obj 202 791 ||;
#X obj 182 663 t f f f;
#X obj 203 816 sel 0 1;
#X obj 253 686 v \$0-n;
#X obj 203 843 v \$0-n;
#X obj 438 671 r \$0-direction;
#X obj 447 693 r \$0-max;
#X obj 438 743 *;
#X obj 447 715 t b f;
#X obj 396 572 r \$0-direction;
#X obj 396 670 *;
#X obj 421 640 t b f;
#X obj 421 618 r \$0-min;
#X obj 396 597 expr -1*($f1-1);
#X obj 396 800 +;
#X obj 411 770 t b f;
#X obj 381 844 f;
#X obj 182 756 < 0;
#X obj 273 730 > 15;
#X obj 419 844 v \$0-lim;
#X obj 225 439 v \$0-lim;
#X obj 225 419 t b;
#X obj 182 615 t b f;
#X obj 104 160 hrslider.mmb;
#X obj 104 249 s \$0-min;
#X obj 307 249 s \$0-max;
#X msg 549 38 mode 2;
#X msg 419 73 setminmax 1 \$1;
#X obj 244 529 r \$0-direction;
#X obj 549 13 loadbang;
#X obj 104 549 s \$0-position;
#X obj 620 269 r \$0-position;
#X msg 393 148 1 \$1;
#X obj 620 383 outlet;
#X obj 419 14 inlet;
#X msg 549 68 size 210 15;
#X obj 587 333 gate 2;
#X obj 587 303 + 1;
#X obj 105 309 tgl 15 0 empty empty empty 17 7 0 10 -262144 -1 -1 1
1;
#X obj 132 319 r speed;
#X obj 105 339 metro;
#X obj 144 52 loadbang;
#X obj 144 103 vradio 15 1 0 2 empty empty empty 17 23 0 10 -262144
-1 -1 0;
#X text 164 102 fwd;
#X text 164 117 bck;
#X obj 144 209 s \$0-direction;
#X msg 144 72 0;
#X floatatom 104 140 8 0 0 0 - - -;
#X floatatom 264 140 8 0 0 0 - - -;
#X obj 264 344 pack f f;
#X obj 264 324 t b f;
#X obj 104 229 int;
#X obj 620 313 int;
#X obj 107 178 hsl 204 15 90 99 0 0 empty \$0/player/position empty
-2 -8 0 10 -258113 -262144 -1 15789 1;
#X obj 646 535 r \$0-min;
#X obj 664 562 r \$0-max;
#X msg 700 383 set \$1;
#X obj 703 624 makesymbol %s/player/position;
#X msg 646 679 \; \$3 range \$1 \$2;
#X obj 664 584 t b f b;
#X obj 646 644 pack f f s;
#X obj 703 604 \$0;
#X obj 700 404 s \$0/player/position;
#X obj 590 363 + 1;
#X msg 307 287 set \$1;
#X msg 105 287 set \$1;
#X obj 307 229 int;
#X msg 264 364 \$1 \$2;
#X obj 180 19 inlet;
#X obj 314 313 inlet;
#X connect 1 0 51 0;
#X connect 2 0 3 0;
#X connect 3 0 1 0;
#X connect 3 0 52 0;
#X connect 4 0 15 0;
#X connect 5 0 36 0;
#X connect 6 0 36 0;
#X connect 7 0 4 0;
#X connect 7 0 44 0;
#X connect 8 0 31 1;
#X connect 10 0 7 1;
#X connect 11 0 35 0;
#X connect 12 0 32 1;
#X connect 13 0 5 0;
#X connect 13 1 6 0;
#X connect 14 0 16 0;
#X connect 15 0 31 0;
#X connect 15 1 32 0;
#X connect 15 2 17 0;
#X connect 16 0 18 0;
#X connect 16 1 30 0;
#X connect 18 0 9 0;
#X connect 19 0 21 0;
#X connect 20 0 22 0;
#X connect 21 0 29 0;
#X connect 22 0 21 0;
#X connect 22 1 21 1;
#X connect 23 0 27 0;
#X connect 24 0 28 0;
#X connect 25 0 24 0;
#X connect 25 1 24 1;
#X connect 26 0 25 0;
#X connect 27 0 24 0;
#X connect 28 0 30 1;
#X connect 28 0 33 0;
#X connect 29 0 28 0;
#X connect 29 1 28 1;
#X connect 30 0 9 0;
#X connect 31 0 14 0;
#X connect 32 0 14 1;
#X connect 34 0 7 1;
#X connect 35 0 34 0;
#X connect 36 0 4 0;
#X connect 36 1 4 1;
#X connect 37 0 65 0;
#X connect 37 1 80 0;
#X connect 40 0 37 0;
#X connect 41 0 37 0;
#X connect 42 0 13 0;
#X connect 43 0 40 0;
#X connect 43 0 49 0;
#X connect 45 0 66 0;
#X connect 46 0 37 0;
#X connect 48 0 41 0;
#X connect 48 0 46 0;
#X connect 48 0 62 0;
#X connect 49 0 37 0;
#X connect 50 1 70 0;
#X connect 50 1 77 0;
#X connect 50 1 47 0;
#X connect 51 0 50 0;
#X connect 52 0 54 0;
#X connect 53 0 54 1;
#X connect 54 0 7 0;
#X connect 55 0 60 0;
#X connect 56 0 59 0;
#X connect 60 0 56 0;
#X connect 61 0 63 0;
#X connect 62 0 64 0;
#X connect 63 0 81 0;
#X connect 64 0 63 0;
#X connect 64 1 63 1;
#X connect 65 0 38 0;
#X connect 65 0 79 0;
#X connect 66 0 50 1;
#X connect 68 0 74 0;
#X connect 69 0 73 0;
#X connect 70 0 76 0;
#X connect 71 0 74 2;
#X connect 73 0 74 0;
#X connect 73 1 74 1;
#X connect 73 2 75 0;
#X connect 74 0 72 0;
#X connect 75 0 71 0;
#X connect 78 0 62 0;
#X connect 79 0 61 0;
#X connect 80 0 39 0;
#X connect 80 0 78 0;
#X connect 81 0 37 0;
#X connect 82 0 1 0;
#X connect 83 0 81 0;
#X coords 0 -1 1 1 220 100 1 100 100;
