#N canvas 53 82 450 300 10;
#X obj 103 56 cnv 15 200 200 empty empty empty 20 12 0 14 -261682 -66577
0;
#X obj 113 219 mp3cast~;
#X msg 144 149 mpeg 44100 128 1 4;
#X msg 128 169 mountpoint hellocatfood.mp3;
#X msg 176 109 icecast2;
#X msg 160 129 passwd k74ws;
#X msg 113 189 connect giss.tv 8000;
#X obj 113 67 loadbang;
#X obj 113 89 t b b b b b;
#X obj 181 68 bng 15 250 50 0 empty empty empty 17 7 0 10 -4034 -1
-1;
#X text 218 69 http://giss.tv:8000/hellocatfood.mp3;
#X obj 13 69 inlet~;
#X floatatom 113 241 5 0 0 0 - - -;
#X msg 321 34 disconnect;
#X connect 1 0 12 0;
#X connect 2 0 1 0;
#X connect 3 0 1 0;
#X connect 4 0 1 0;
#X connect 5 0 1 0;
#X connect 6 0 1 0;
#X connect 7 0 8 0;
#X connect 8 0 6 0;
#X connect 8 1 3 0;
#X connect 8 2 2 0;
#X connect 8 3 5 0;
#X connect 8 4 4 0;
#X connect 9 0 8 0;
#X connect 11 0 1 0;
#X connect 11 0 1 1;
#X connect 13 0 1 0;
